<svg version="1.1" xmlns="http://www.w3.org/2000/svg" viewBox="0 0 1059.9022010909523 678.0585428302633" width="1059.9022010909523" height="678.0585428302633" filter="invert(93%) hue-rotate(180deg)">
  <!-- svg-source:excalidraw -->
  
  <defs>
    <style class="style-fonts">
      @font-face {
        font-family: "Virgil";
        src: url("https://excalidraw.com/Virgil.woff2");
      }
      @font-face {
        font-family: "Cascadia";
        src: url("https://excalidraw.com/Cascadia.woff2");
      }
      @font-face {
        font-family: "Assistant";
        src: url("https://excalidraw.com/Assistant-Regular.woff2");
      }
    </style>
    
  </defs>
  <g stroke-linecap="round" transform="translate(235.04213511372558 73.11670731943371) rotate(0 127.19999694824219 26.79998779296875)"><path d="M13.4 0 C84.78 -0.83, 155.48 0.26, 241 0 C251.88 -0.03, 252.31 3.99, 254.4 13.4 C255.52 20.86, 256.81 26.03, 254.4 40.2 C254.14 52.16, 248.44 54.98, 241 53.6 C158.81 47.83, 75.98 53.25, 13.4 53.6 C1.29 56.74, -2.32 48.42, 0 40.2 C-1.05 34.92, 0.69 28.26, 0 13.4 C-2.51 4.07, 2.49 -3.11, 13.4 0" stroke="none" stroke-width="0" fill="#ffc9c9"></path><path d="M13.4 0 C96.35 0.44, 178.5 2.78, 241 0 M13.4 0 C98.83 0.88, 184.64 1.15, 241 0 M241 0 C250.37 -0.33, 253.43 5.01, 254.4 13.4 M241 0 C248.99 0.1, 253.98 4.5, 254.4 13.4 M254.4 13.4 C255.38 25.03, 254.5 32.25, 254.4 40.2 M254.4 13.4 C255.2 23.62, 255.36 32.27, 254.4 40.2 M254.4 40.2 C255.19 48.72, 250.52 53.61, 241 53.6 M254.4 40.2 C256.35 46.97, 250.33 52.27, 241 53.6 M241 53.6 C171.43 55.76, 103.8 56.59, 13.4 53.6 M241 53.6 C191.18 51.28, 140.94 51.46, 13.4 53.6 M13.4 53.6 C3.37 55.32, 1.77 50.75, 0 40.2 M13.4 53.6 C5.75 52.49, 1.97 49.19, 0 40.2 M0 40.2 C1.8 33.23, 1.72 27.51, 0 13.4 M0 40.2 C-0.78 32.43, 0.3 23.48, 0 13.4 M0 13.4 C-0.05 6.25, 4.1 -1.39, 13.4 0 M0 13.4 C-2.21 5.53, 6.32 -0.16, 13.4 0" stroke="#e03131" stroke-width="2" fill="none"></path></g><g stroke-linecap="round" transform="translate(212.6421412172412 46.7167286817384) rotate(0 150.00001525878906 186.8000564575195)"><path d="M32 0 C109.62 0.64, 191.35 0.2, 268 0 M32 0 C96.56 0.28, 162.95 -0.5, 268 0 M268 0 C290.71 -0.32, 301.38 9.2, 300 32 M268 0 C289.47 -1.94, 301.45 8.51, 300 32 M300 32 C298.49 102.4, 298.2 171.84, 300 341.6 M300 32 C301.6 139.53, 301.43 248.96, 300 341.6 M300 341.6 C300.09 362.89, 288.91 372.54, 268 373.6 M300 341.6 C300.43 362.06, 288.66 375.4, 268 373.6 M268 373.6 C202.76 373.36, 137.77 372.94, 32 373.6 M268 373.6 C179.04 372.79, 89.65 372.82, 32 373.6 M32 373.6 C11.08 374.73, 1.91 362.76, 0 341.6 M32 373.6 C11.59 374.77, -0.89 360.68, 0 341.6 M0 341.6 C0.26 263.92, 1.27 189.15, 0 32 M0 341.6 C-2.66 223.66, -2.06 104.16, 0 32 M0 32 C-1.48 9.43, 10.31 -0.23, 32 0 M0 32 C1.23 11.71, 10.72 1.41, 32 0" stroke="#1e1e1e" stroke-width="2" fill="none"></path></g><g transform="translate(258.0421656313037 88.71671342294934) rotate(0 111.328125 12)"><text x="0" y="0" font-family="Cascadia, Segoe UI Emoji" font-size="20px" fill="#1e1e1e" text-anchor="start" style="white-space: pre;" direction="ltr" dominant-baseline="text-before-edge">SET | User3 | val22</text></g><g stroke-linecap="round" transform="translate(232.64215647603027 137.31671952646496) rotate(0 127.19999694824219 26.79998779296875)"><path d="M13.4 0 C91.46 -2.13, 171.71 -4.11, 241 0 C249.34 -1.28, 254.95 3.12, 254.4 13.4 C251.53 16.83, 252.35 28.28, 254.4 40.2 C251.55 45.65, 249.8 55.65, 241 53.6 C170.43 50.36, 103.31 55.32, 13.4 53.6 C6.8 50.49, 0.89 47.24, 0 40.2 C-3.16 31.85, -1.16 23.62, 0 13.4 C-2.77 1.92, 1.2 2.58, 13.4 0" stroke="none" stroke-width="0" fill="#ffc9c9"></path><path d="M13.4 0 C66.11 -0.17, 121.16 1.49, 241 0 M13.4 0 C67.92 -0.08, 124.55 -0.11, 241 0 M241 0 C249.89 -0.4, 255.62 6.2, 254.4 13.4 M241 0 C248.77 0.15, 252.96 3, 254.4 13.4 M254.4 13.4 C254.14 23.01, 254.06 33.29, 254.4 40.2 M254.4 13.4 C255.17 22.28, 254.44 29.87, 254.4 40.2 M254.4 40.2 C254.84 50.22, 251.49 53.83, 241 53.6 M254.4 40.2 C255.87 47.65, 251.58 53.61, 241 53.6 M241 53.6 C161.13 53.13, 84.2 53.24, 13.4 53.6 M241 53.6 C190.84 53.17, 141.4 52.31, 13.4 53.6 M13.4 53.6 C2.49 54.29, -1.22 47.7, 0 40.2 M13.4 53.6 C6.13 52.4, -2.18 51.35, 0 40.2 M0 40.2 C0.82 29.89, 0.64 19.28, 0 13.4 M0 40.2 C-0.9 33.23, -0.95 24.42, 0 13.4 M0 13.4 C-0.45 6.24, 5.87 1.55, 13.4 0 M0 13.4 C1.09 5.4, 5.03 -0.88, 13.4 0" stroke="#e03131" stroke-width="2" fill="none"></path></g><g transform="translate(255.6421869936084 152.9167256299806) rotate(0 105.46875 12)"><text x="0" y="0" font-family="Cascadia, Segoe UI Emoji" font-size="20px" fill="#1e1e1e" text-anchor="start" style="white-space: pre;" direction="ltr" dominant-baseline="text-before-edge">SET | User2 | val3</text></g><g stroke-linecap="round" transform="translate(236.2421625795459 207.51673173349621) rotate(0 127.19999694824219 26.79998779296875)"><path d="M13.4 0 C101.69 2.93, 191.08 1.67, 241 0 M13.4 0 C76.67 -1.63, 140.27 -2.22, 241 0 M241 0 C251.17 1.8, 254.21 3.96, 254.4 13.4 M241 0 C249.83 -0.67, 254.97 4.68, 254.4 13.4 M254.4 13.4 C255.45 23.09, 254.05 33.87, 254.4 40.2 M254.4 13.4 C255.25 22.26, 255.32 32.4, 254.4 40.2 M254.4 40.2 C255.27 48.23, 248.83 51.63, 241 53.6 M254.4 40.2 C255.21 48.55, 250.89 51.74, 241 53.6 M241 53.6 C166.73 53.41, 90.38 51.32, 13.4 53.6 M241 53.6 C165.47 51.76, 87.89 53.03, 13.4 53.6 M13.4 53.6 C6.13 53.81, -0.68 49.98, 0 40.2 M13.4 53.6 C4.42 54.37, -0.44 49.02, 0 40.2 M0 40.2 C1.64 29.29, -0.15 21.25, 0 13.4 M0 40.2 C0.29 30.19, 0.06 19, 0 13.4 M0 13.4 C0.93 4.9, 5.76 -0.56, 13.4 0 M0 13.4 C0.11 4.82, 3.09 -0.38, 13.4 0" stroke="#1e1e1e" stroke-width="2" fill="none"></path></g><g transform="translate(259.242193097124 223.11673783701184) rotate(0 105.46875 12)"><text x="0" y="0" font-family="Cascadia, Segoe UI Emoji" font-size="20px" fill="#1e1e1e" text-anchor="start" style="white-space: pre;" direction="ltr" dominant-baseline="text-before-edge">SET | User2 | val2</text></g><g stroke-linecap="round" transform="translate(237.8421381654834 272.7167744581056) rotate(0 127.19999694824219 26.79998779296872)"><path d="M13.4 0 C71.34 -1.06, 125.73 -0.11, 241 0 M13.4 0 C73.96 1.99, 136.58 1.54, 241 0 M241 0 C251.91 -0.26, 254.48 5.62, 254.4 13.4 M241 0 C249.6 -0.87, 253.31 3.48, 254.4 13.4 M254.4 13.4 C255.29 25.49, 254.03 34.64, 254.4 40.2 M254.4 13.4 C254.33 19.57, 253.36 26.21, 254.4 40.2 M254.4 40.2 C253.17 48.01, 250.58 53.96, 241 53.6 M254.4 40.2 C255.98 47.99, 250.19 52.12, 241 53.6 M241 53.6 C175.06 56.1, 112.51 53.4, 13.4 53.6 M241 53.6 C178.81 51.16, 116.35 51.03, 13.4 53.6 M13.4 53.6 C5.41 52.61, -0.88 49.56, 0 40.2 M13.4 53.6 C3.23 52.83, -1.58 48.51, 0 40.2 M0 40.2 C0.34 33.36, 0.97 27.02, 0 13.4 M0 40.2 C-0.42 33.22, 0.75 23.65, 0 13.4 M0 13.4 C1.25 5.69, 5.12 1.13, 13.4 0 M0 13.4 C1.41 4.89, 4.66 1.83, 13.4 0" stroke="#1e1e1e" stroke-width="2" fill="none"></path></g><g transform="translate(260.8421686830615 288.3167805616212) rotate(0 64.453125 12)"><text x="0" y="0" font-family="Cascadia, Segoe UI Emoji" font-size="20px" fill="#1e1e1e" text-anchor="start" style="white-space: pre;" direction="ltr" dominant-baseline="text-before-edge">RM | User1 </text></g><g stroke-linecap="round" transform="translate(238.04218089009277 343.11670731943366) rotate(0 127.19999694824219 26.79998779296875)"><path d="M13.4 0 C88.78 -2.49, 165.15 -2.65, 241 0 M13.4 0 C100.8 2.39, 187.42 2.35, 241 0 M241 0 C251.16 0.37, 254.57 6.05, 254.4 13.4 M241 0 C249.45 1.24, 256.59 4.83, 254.4 13.4 M254.4 13.4 C255.75 20.35, 254.63 28.7, 254.4 40.2 M254.4 13.4 C254.71 18.49, 254.91 24.15, 254.4 40.2 M254.4 40.2 C254.98 51.02, 250.52 55.12, 241 53.6 M254.4 40.2 C254.68 48.67, 250.48 55.83, 241 53.6 M241 53.6 C174.95 53.72, 108.36 54.67, 13.4 53.6 M241 53.6 C175.66 54.81, 110.99 54.87, 13.4 53.6 M13.4 53.6 C5.98 53.06, 0.32 47.14, 0 40.2 M13.4 53.6 C5.84 51.54, -0.56 50.62, 0 40.2 M0 40.2 C0.33 33.24, -1.37 29.15, 0 13.4 M0 40.2 C0.72 30.62, -0.66 19.4, 0 13.4 M0 13.4 C-0.39 3.08, 5.75 0.34, 13.4 0 M0 13.4 C0 6.38, 3.92 0.29, 13.4 0" stroke="#1e1e1e" stroke-width="2" fill="none"></path></g><g transform="translate(261.0422114076709 358.7167134229493) rotate(0 105.46875 12)"><text x="0" y="0" font-family="Cascadia, Segoe UI Emoji" font-size="20px" fill="#1e1e1e" text-anchor="start" style="white-space: pre;" direction="ltr" dominant-baseline="text-before-edge">SET | User1 | val1</text></g><g transform="translate(10 54.2862717624688) rotate(0 93.75 12)"><text x="0" y="0" font-family="Cascadia, Segoe UI Emoji" font-size="20px" fill="#1e1e1e" text-anchor="start" style="white-space: pre;" direction="ltr" dominant-baseline="text-before-edge">time since write</text></g><g stroke-linecap="round"><g transform="translate(176.9946989384324 90.73224256516198) rotate(0 -0.13853743541758945 162.04924362265274)"><path d="M1.11 -0.35 C1.06 53.82, 0.66 270.34, 0.35 324.45 M0.23 -1.58 C0.03 52.26, 0.06 267.96, -0.27 322.51" stroke="#1e1e1e" stroke-width="2" fill="none"></path></g><g transform="translate(176.9946989384324 90.73224256516198) rotate(0 -0.13853743541758945 162.04924362265274)"><path d="M-8.76 298.99 C-6.47 308.2, -2.34 314.63, -0.27 322.51 M-8.76 298.99 C-5.02 305.94, -3.87 313.31, -0.27 322.51" stroke="#1e1e1e" stroke-width="2" fill="none"></path></g><g transform="translate(176.9946989384324 90.73224256516198) rotate(0 -0.13853743541758945 162.04924362265274)"><path d="M8.34 299.04 C4.63 308.39, 2.78 314.8, -0.27 322.51 M8.34 299.04 C6.71 305.87, 2.49 313.23, -0.27 322.51" stroke="#1e1e1e" stroke-width="2" fill="none"></path></g></g><mask></mask><g transform="translate(316.7011954496365 10) rotate(0 46.875 12)"><text x="0" y="0" font-family="Cascadia, Segoe UI Emoji" font-size="20px" fill="#1e1e1e" text-anchor="start" style="white-space: pre;" direction="ltr" dominant-baseline="text-before-edge">Log file</text></g><g transform="translate(135.62816942928325 473.9685528595037) rotate(0 228.515625 12)"><text x="0" y="0" font-family="Cascadia, Segoe UI Emoji" font-size="20px" fill="#1e1e1e" text-anchor="start" style="white-space: pre;" direction="ltr" dominant-baseline="text-before-edge">State of in-memory index at latest time</text></g><g stroke-linecap="round" transform="translate(200.0809967679931 526.2861618969838) rotate(0 165.2172157831716 70.88619046663973)"><path d="M-1.86 0.19 L328.84 -0.41 L332.42 140.58 L-0.03 141.44" stroke="none" stroke-width="0" fill="#ffc9c9"></path><path d="M0 0 C120.12 -0.21, 239.9 -0.75, 330.43 0 M0 0 C116.33 -2.28, 233.38 -2.7, 330.43 0 M330.43 0 C331 40.46, 329.4 81.44, 330.43 141.77 M330.43 0 C328.51 48.57, 328.51 98.9, 330.43 141.77 M330.43 141.77 C203.69 139.79, 77.47 140.25, 0 141.77 M330.43 141.77 C218.95 140.29, 108.43 141.09, 0 141.77 M0 141.77 C-1.8 98.85, -1.76 51.35, 0 0 M0 141.77 C0.16 102, -0.16 60.86, 0 0" stroke="#1e1e1e" stroke-width="2" fill="none"></path></g><g stroke-linecap="round"><g transform="translate(200.0809967679931 572.0004476112694) rotate(0 164.07760256758147 0.2841183569222494)"><path d="M0 0 C126.71 1.91, 251.72 2.15, 328.16 0.57 M0 0 C118.93 0.11, 237.17 1.06, 328.16 0.57" stroke="#1e1e1e" stroke-width="2" fill="none"></path></g></g><mask></mask><g stroke-linecap="round"><g transform="translate(200.3666630975132 621.0799910175006) rotate(0 163.79350588584663 -0.28409668173480895)"><path d="M0 0 C87.23 -1.17, 173.67 -0.19, 327.59 -0.57 M0 0 C102.99 -2.55, 206.32 -1.85, 327.59 -0.57" stroke="#1e1e1e" stroke-width="2" fill="none"></path></g></g><mask></mask><g stroke-linecap="round"><g transform="translate(317.7952737629708 525.1433221927426) rotate(0 0 70.60209378490487)"><path d="M0 0 C0.88 36.83, 1.29 78.16, 0 141.2 M0 0 C0.21 36.64, -0.46 71.94, 0 141.2" stroke="#1e1e1e" stroke-width="2" fill="none"></path></g></g><mask></mask><g transform="translate(242.3667197730154 540.0004999271176) rotate(0 17.578125 12)"><text x="0" y="0" font-family="Cascadia, Segoe UI Emoji" font-size="20px" fill="#1e1e1e" text-anchor="start" style="white-space: pre;" direction="ltr" dominant-baseline="text-before-edge">Key</text></g><g transform="translate(352.080988048685 538.8575730297961) rotate(0 29.296875 12)"><text x="0" y="0" font-family="Cascadia, Segoe UI Emoji" font-size="20px" fill="#1e1e1e" text-anchor="start" style="white-space: pre;" direction="ltr" dominant-baseline="text-before-edge">Value</text></g><g transform="translate(523.8373571948151 19.95166183284664) rotate(0 69.31640624999997 21.845956840736903)"><text x="0" y="0" font-family="Cascadia, Segoe UI Emoji" font-size="18.204964033947416px" fill="#1e1e1e" text-anchor="start" style="white-space: pre;" direction="ltr" dominant-baseline="text-before-edge">file position</text><text x="0" y="21.8459568407369" font-family="Cascadia, Segoe UI Emoji" font-size="18.204964033947416px" fill="#1e1e1e" text-anchor="start" style="white-space: pre;" direction="ltr" dominant-baseline="text-before-edge">(simplified)</text></g><g transform="translate(535.4421446015399 354.15395227161025) rotate(0 5.859375 12)"><text x="0" y="0" font-family="Cascadia, Segoe UI Emoji" font-size="20px" fill="#1e1e1e" text-anchor="start" style="white-space: pre;" direction="ltr" dominant-baseline="text-before-edge">0</text></g><g transform="translate(533.7277953397299 287.2088010323517) rotate(0 5.859375 12)"><text x="0" y="0" font-family="Cascadia, Segoe UI Emoji" font-size="20px" fill="#1e1e1e" text-anchor="start" style="white-space: pre;" direction="ltr" dominant-baseline="text-before-edge">1</text></g><g transform="translate(533.7279697258907 222.659519121889) rotate(0 5.859375 12)"><text x="0" y="0" font-family="Cascadia, Segoe UI Emoji" font-size="20px" fill="#1e1e1e" text-anchor="start" style="white-space: pre;" direction="ltr" dominant-baseline="text-before-edge">2</text></g><g transform="translate(534.2993459814711 155.80239370336227) rotate(0 5.859375 12)"><text x="0" y="0" font-family="Cascadia, Segoe UI Emoji" font-size="20px" fill="#1e1e1e" text-anchor="start" style="white-space: pre;" direction="ltr" dominant-baseline="text-before-edge">3</text></g><g transform="translate(534.0136142571407 88.9452246882953) rotate(0 5.859375 12)"><text x="0" y="0" font-family="Cascadia, Segoe UI Emoji" font-size="20px" fill="#1e1e1e" text-anchor="start" style="white-space: pre;" direction="ltr" dominant-baseline="text-before-edge">4</text></g><g transform="translate(230.93810474790376 583.4290190398407) rotate(0 29.296875 12)"><text x="0" y="0" font-family="Cascadia, Segoe UI Emoji" font-size="20px" fill="#1e1e1e" text-anchor="start" style="white-space: pre;" direction="ltr" dominant-baseline="text-before-edge">User2</text></g><g transform="translate(232.49838132435463 632.5718587440821) rotate(0 29.296875 12)"><text x="0" y="0" font-family="Cascadia, Segoe UI Emoji" font-size="20px" fill="#1e1e1e" text-anchor="start" style="white-space: pre;" direction="ltr" dominant-baseline="text-before-edge">User3</text></g><g transform="translate(327.5896064233462 583.2943993796148) rotate(0 82.03125 12)"><text x="0" y="0" font-family="Cascadia, Segoe UI Emoji" font-size="20px" fill="#1e1e1e" text-anchor="start" style="white-space: pre;" direction="ltr" dominant-baseline="text-before-edge">{pos:3, len:4}</text></g><g transform="translate(329.7823387119942 631.6901283579598) rotate(0 82.03125 12)"><text x="0" y="0" font-family="Cascadia, Segoe UI Emoji" font-size="20px" fill="#1e1e1e" text-anchor="start" style="white-space: pre;" direction="ltr" dominant-baseline="text-before-edge">{pos:4, len:5}</text></g><g transform="translate(598.3430867604729 202.90744871615897) rotate(0 58.59375 12)"><text x="0" y="0" font-family="Cascadia, Segoe UI Emoji" font-size="20px" fill="#1e1e1e" text-anchor="start" style="white-space: pre;" direction="ltr" dominant-baseline="text-before-edge">Compaction</text></g><g stroke-linecap="round" transform="translate(772.3021644698586 207.06809712526177) rotate(0 127.19999694824219 26.79998779296875)"><path d="M13.4 0 C74.32 5, 139.58 0.44, 241 0 C250.77 -1.89, 253.61 5.78, 254.4 13.4 C256.32 18.83, 252.03 32.03, 254.4 40.2 C255.89 47.65, 248.48 52.87, 241 53.6 C193.89 51.78, 140.64 50.82, 13.4 53.6 C3.79 56.19, -2.45 48.75, 0 40.2 C2.56 28.73, 2.83 22.93, 0 13.4 C2.45 7.4, 6.6 -1.37, 13.4 0" stroke="none" stroke-width="0" fill="#ffc9c9"></path><path d="M13.4 0 C91.47 -1.51, 170.92 -2.82, 241 0 M13.4 0 C73.38 -0.44, 133.72 -0.29, 241 0 M241 0 C249.22 -1.66, 256.29 4.1, 254.4 13.4 M241 0 C247.89 1.79, 253.96 5.69, 254.4 13.4 M254.4 13.4 C254.82 22.34, 254.69 30.39, 254.4 40.2 M254.4 13.4 C254.99 19.9, 254.18 26.74, 254.4 40.2 M254.4 40.2 C253.62 50.8, 249.78 54.41, 241 53.6 M254.4 40.2 C254.4 50.85, 249.48 52.19, 241 53.6 M241 53.6 C179.09 55.75, 121.55 54.16, 13.4 53.6 M241 53.6 C169.74 53.43, 99.61 52.67, 13.4 53.6 M13.4 53.6 C5.69 53.45, -0.07 49.03, 0 40.2 M13.4 53.6 C6.47 52.29, -2.04 48.9, 0 40.2 M0 40.2 C-0.37 32.25, -1.25 21.25, 0 13.4 M0 40.2 C0.06 30.91, -0.47 21.25, 0 13.4 M0 13.4 C1.02 2.97, 4.33 -0.08, 13.4 0 M0 13.4 C-1.32 6.05, 2.49 2.15, 13.4 0" stroke="#e03131" stroke-width="2" fill="none"></path></g><g stroke-linecap="round" transform="translate(749.9021705733742 180.66811848756646) rotate(0 150.00001525878906 84.48536873243799)"><path d="M32 0 C126.24 -1.34, 216.93 -1.75, 268 0 M32 0 C115.57 -0.62, 197.98 -2.03, 268 0 M268 0 C291.23 -0.36, 298.22 12.22, 300 32 M268 0 C288.89 1.23, 301.07 10.21, 300 32 M300 32 C300.59 62.37, 298.88 96.79, 300 136.97 M300 32 C300.16 69.43, 300.1 105.83, 300 136.97 M300 136.97 C299.85 159.11, 289.34 170.47, 268 168.97 M300 136.97 C299.55 156.89, 288.52 171.22, 268 168.97 M268 168.97 C175.21 167.95, 80.54 168.79, 32 168.97 M268 168.97 C200.01 168.37, 132.23 169.02, 32 168.97 M32 168.97 C10.6 168.87, 1.74 157.17, 0 136.97 M32 168.97 C8.63 168.74, 0.99 158.11, 0 136.97 M0 136.97 C-1.07 102, 1.39 69.93, 0 32 M0 136.97 C-0.55 112.07, 0.19 85.83, 0 32 M0 32 C-0.14 10.58, 9.52 1.38, 32 0 M0 32 C-1.98 12.82, 10.1 0.33, 32 0" stroke="#1e1e1e" stroke-width="2" fill="none"></path></g><g transform="translate(795.3021949874367 222.6681032287774) rotate(0 111.328125 12)"><text x="0" y="0" font-family="Cascadia, Segoe UI Emoji" font-size="20px" fill="#1e1e1e" text-anchor="start" style="white-space: pre;" direction="ltr" dominant-baseline="text-before-edge">SET | User3 | val22</text></g><g stroke-linecap="round" transform="translate(769.9021858321632 271.268109332293) rotate(0 127.19999694824219 26.79998779296872)"><path d="M13.4 0 C65.45 2.96, 118.38 -0.29, 241 0 C252.29 2.26, 252.19 2.43, 254.4 13.4 C253.15 23.2, 251.54 33.91, 254.4 40.2 C251.35 51.29, 251.27 50.73, 241 53.6 C169.27 55.8, 101.88 59.03, 13.4 53.6 C2.74 56.62, -3.27 52.42, 0 40.2 C1.8 31.45, -0.96 26.41, 0 13.4 C-3.38 2.12, 5.47 2.29, 13.4 0" stroke="none" stroke-width="0" fill="#ffc9c9"></path><path d="M13.4 0 C69.1 1.7, 124.16 2.5, 241 0 M13.4 0 C101.83 1.46, 187.88 2.28, 241 0 M241 0 C249.55 1.07, 255.33 4.07, 254.4 13.4 M241 0 C250.03 0.55, 254.01 4.86, 254.4 13.4 M254.4 13.4 C255.17 20.27, 254.8 24.56, 254.4 40.2 M254.4 13.4 C254.22 24.35, 254.3 35.23, 254.4 40.2 M254.4 40.2 C254.01 47.91, 249.23 55.56, 241 53.6 M254.4 40.2 C256.64 46.9, 250.27 55.02, 241 53.6 M241 53.6 C190.29 52.08, 140.05 53.36, 13.4 53.6 M241 53.6 C191.76 53.41, 143.33 52.97, 13.4 53.6 M13.4 53.6 C2.69 53.4, 0.86 48.96, 0 40.2 M13.4 53.6 C5.11 53.15, 1.43 47.67, 0 40.2 M0 40.2 C-1.36 33.52, 0.51 25.17, 0 13.4 M0 40.2 C-0.2 31.32, -0.71 23.22, 0 13.4 M0 13.4 C-1.72 6.34, 3.98 0.29, 13.4 0 M0 13.4 C-1.67 3.13, 6.3 0.57, 13.4 0" stroke="#e03131" stroke-width="2" fill="none"></path></g><g transform="translate(792.9022163497414 286.86811543580865) rotate(0 105.46875 12)"><text x="0" y="0" font-family="Cascadia, Segoe UI Emoji" font-size="20px" fill="#1e1e1e" text-anchor="start" style="white-space: pre;" direction="ltr" dominant-baseline="text-before-edge">SET | User2 | val3</text></g><g transform="translate(835.6522687937577 148.2593528718371) rotate(0 46.875 12)"><text x="0" y="0" font-family="Cascadia, Segoe UI Emoji" font-size="20px" fill="#1e1e1e" text-anchor="start" style="white-space: pre;" direction="ltr" dominant-baseline="text-before-edge">Log file</text></g><g stroke-linecap="round"><g transform="translate(587.573117469192 267.52730554801633) rotate(0 69.46628960350958 -0.5385107898157457)"><path d="M0 0 C32.85 -0.03, 67.22 0.93, 138.93 -1.08 M0 0 C48.55 -0.3, 97.55 -0.38, 138.93 -1.08" stroke="#1e1e1e" stroke-width="2" fill="none"></path></g><g transform="translate(587.573117469192 267.52730554801633) rotate(0 69.46628960350958 -0.5385107898157457)"><path d="M115.55 7.76 C120.18 4.75, 126.38 3.82, 138.93 -1.08 M115.55 7.76 C123.36 4.15, 131.61 1.34, 138.93 -1.08" stroke="#1e1e1e" stroke-width="2" fill="none"></path></g><g transform="translate(587.573117469192 267.52730554801633) rotate(0 69.46628960350958 -0.5385107898157457)"><path d="M115.34 -9.34 C120.1 -8.18, 126.36 -4.94, 138.93 -1.08 M115.34 -9.34 C123.21 -6.91, 131.53 -3.7, 138.93 -1.08" stroke="#1e1e1e" stroke-width="2" fill="none"></path></g></g><mask></mask></svg>